<svg xmlns="http://www.w3.org/2000/svg" version="1.1" xmlns:xlink="http://www.w3.org/1999/xlink" xmlns:svgjs="http://svgjs.dev/svgjs" width="2000" height="191" viewBox="0 0 2000 191"><g transform="matrix(1,0,0,1,-1.2121212121213603,-0.049079899100391344)"><svg viewBox="0 0 396 38" data-background-color="#ffffff" preserveAspectRatio="xMidYMid meet" height="191" width="2000" xmlns="http://www.w3.org/2000/svg" xmlns:xlink="http://www.w3.org/1999/xlink"><g id="tight-bounds" transform="matrix(1,0,0,1,0.24000000000003752,0.009764587255574497)"><svg viewBox="0 0 395.5199999999999 37.98047082548885" height="37.98047082548885" width="395.5199999999999"><g><svg viewBox="0 0 539.9282292518176 51.847513043478244" height="37.98047082548885" width="395.5199999999999"><g><rect width="4.652400231735652" height="51.847513043478244" x="127.57677082182107" y="0" fill="#152232" opacity="1" stroke-width="0" stroke="transparent" fill-opacity="1" class="rect-qz-0" data-fill-palette-color="primary" rx="1%" id="qz-0" data-palette-color="#152232"></rect></g><g transform="matrix(1,0,0,1,144.40822925181757,0.12897391304347394)"><svg viewBox="0 0 395.52 51.589565217391296" height="51.589565217391296" width="395.52"><g id="textblocktransform"><svg viewBox="0 0 395.52 51.589565217391296" height="51.589565217391296" width="395.52" id="textblock"><g><svg viewBox="0 0 395.52 51.589565217391296" height="51.589565217391296" width="395.52"><g transform="matrix(1,0,0,1,0,0)"><svg width="395.52" viewBox="2 -35.35 274.82 35.85" height="51.589565217391296" data-palette-color="#152232"><path d="M11.15 0L2.2 0Q2 0 2-0.25L2-0.25 2.1-34.6Q2.1-34.8 2.3-34.8L2.3-34.8 11.9-34.8Q14.75-34.8 17-33.43 19.25-32.05 20.55-29.8 21.85-27.55 21.85-24.9L21.85-24.9Q21.85-22.75 20.88-20.9 19.9-19.05 18.55-17.9L18.55-17.9Q20-16.45 20.8-14.55 21.6-12.65 21.6-10.55L21.6-10.55Q21.6-7.65 20.2-5.25 18.8-2.85 16.43-1.43 14.05 0 11.15 0L11.15 0ZM8.1-28.85L8.1-21 11.9-21Q13.65-21 14.73-22.23 15.8-23.45 15.8-24.9L15.8-24.9Q15.8-26.5 14.65-27.68 13.5-28.85 11.9-28.85L11.9-28.85 8.1-28.85ZM8.1-14.95L8.05-6.1 11.15-6.1Q12.95-6.1 14.25-7.43 15.55-8.75 15.55-10.55L15.55-10.55Q15.55-12.35 14.25-13.65 12.95-14.95 11.15-14.95L11.15-14.95 8.1-14.95ZM34.45 0.5L34.45 0.5Q31.75 0.5 29.52-0.88 27.3-2.25 25.95-4.53 24.6-6.8 24.6-9.55L24.6-9.55 24.65-25.4Q24.65-28.15 25.97-30.4 27.3-32.65 29.55-34 31.8-35.35 34.45-35.35L34.45-35.35Q37.15-35.35 39.35-34 41.55-32.65 42.87-30.4 44.2-28.15 44.2-25.4L44.2-25.4 44.25-9.55Q44.25-6.8 42.92-4.53 41.6-2.25 39.37-0.88 37.15 0.5 34.45 0.5ZM34.45-5.55L34.45-5.55Q35.95-5.55 37.07-6.78 38.2-8 38.2-9.55L38.2-9.55 38.15-25.4Q38.15-27.05 37.1-28.2 36.05-29.35 34.45-29.35L34.45-29.35Q32.9-29.35 31.8-28.23 30.7-27.1 30.7-25.4L30.7-25.4 30.7-9.55Q30.7-7.9 31.8-6.73 32.9-5.55 34.45-5.55ZM53.9 0L48.25 0Q48.05 0 48.05-0.25L48.05-0.25 48.15-34.6Q48.15-34.8 48.34-34.8L48.34-34.8 58.45-34.8Q61.15-34.8 63.42-33.48 65.7-32.15 67.05-29.93 68.4-27.7 68.4-24.9L68.4-24.9Q68.4-23.05 67.84-21.58 67.3-20.1 66.55-19.07 65.8-18.05 65.2-17.55L65.2-17.55Q67.9-14.55 67.9-10.5L67.9-10.5 67.95-0.25Q67.95 0 67.7 0L67.7 0 62.05 0Q61.84 0 61.84-0.15L61.84-0.15 61.84-10.5Q61.84-12.3 60.57-13.63 59.3-14.95 57.45-14.95L57.45-14.95 54.15-14.95 54.09-0.25Q54.09 0 53.9 0L53.9 0ZM54.15-28.8L54.15-20.95 58.45-20.95Q60-20.95 61.2-22.1 62.4-23.25 62.4-24.9L62.4-24.9Q62.4-26.5 61.22-27.65 60.05-28.8 58.45-28.8L58.45-28.8 54.15-28.8ZM81.34-0.05L72.39 0Q72.14 0 72.14-0.25L72.14-0.25 72.24-34.6Q72.24-34.8 72.44-34.8L72.44-34.8 81.79-34.85Q84.54-34.9 86.82-33.55 89.09-32.2 90.44-29.93 91.79-27.65 91.79-24.9L91.79-24.9 91.79-10.55Q91.79-7.65 90.39-5.28 88.99-2.9 86.64-1.5 84.29-0.1 81.34-0.05L81.34-0.05ZM78.29-28.8L78.24-6.15 81.34-6.15Q83.19-6.15 84.47-7.45 85.74-8.75 85.74-10.55L85.74-10.55 85.74-24.95Q85.74-26.55 84.57-27.73 83.39-28.9 81.79-28.85L81.79-28.85 78.29-28.8ZM112.09 0L95.94 0Q95.74 0 95.74-0.25L95.74-0.25 95.79-34.6Q95.79-34.8 95.99-34.8L95.99-34.8 112.04-34.8Q112.24-34.8 112.24-34.55L112.24-34.55 112.24-28.95Q112.24-28.75 112.04-28.75L112.04-28.75 101.79-28.75 101.79-20.95 112.04-20.95Q112.24-20.95 112.24-20.75L112.24-20.75 112.29-15.1Q112.29-14.9 112.09-14.9L112.09-14.9 101.79-14.9 101.79-6.15 112.09-6.15Q112.29-6.15 112.29-5.9L112.29-5.9 112.29-0.2Q112.29 0 112.09 0L112.09 0ZM122.59 0L116.94 0Q116.74 0 116.74-0.25L116.74-0.25 116.84-34.6Q116.84-34.8 117.04-34.8L117.04-34.8 127.14-34.8Q129.84-34.8 132.11-33.48 134.39-32.15 135.74-29.93 137.09-27.7 137.09-24.9L137.09-24.9Q137.09-23.05 136.54-21.58 135.99-20.1 135.24-19.07 134.49-18.05 133.89-17.55L133.89-17.55Q136.59-14.55 136.59-10.5L136.59-10.5 136.64-0.25Q136.64 0 136.39 0L136.39 0 130.74 0Q130.54 0 130.54-0.15L130.54-0.15 130.54-10.5Q130.54-12.3 129.26-13.63 127.99-14.95 126.14-14.95L126.14-14.95 122.84-14.95 122.79-0.25Q122.79 0 122.59 0L122.59 0ZM122.84-28.8L122.84-20.95 127.14-20.95Q128.69-20.95 129.89-22.1 131.09-23.25 131.09-24.9L131.09-24.9Q131.09-26.5 129.91-27.65 128.74-28.8 127.14-28.8L127.14-28.8 122.84-28.8ZM150.89-14.45L141.24-14.45Q140.99-14.45 140.99-14.65L140.99-14.65 140.99-20.1Q140.99-20.3 141.24-20.3L141.24-20.3 150.89-20.3Q151.14-20.3 151.14-20.1L151.14-20.1 151.14-14.65Q151.14-14.45 150.89-14.45L150.89-14.45ZM161.83 0L156.18 0Q155.98 0 155.98-0.25L155.98-0.25 156.08-34.6Q156.08-34.8 156.28-34.8L156.28-34.8 166.38-34.8Q169.08-34.8 171.36-33.48 173.63-32.15 174.98-29.93 176.33-27.7 176.33-24.9L176.33-24.9Q176.33-23.05 175.78-21.58 175.23-20.1 174.48-19.07 173.73-18.05 173.13-17.55L173.13-17.55Q175.83-14.55 175.83-10.5L175.83-10.5 175.88-0.25Q175.88 0 175.63 0L175.63 0 169.98 0Q169.78 0 169.78-0.15L169.78-0.15 169.78-10.5Q169.78-12.3 168.51-13.63 167.23-14.95 165.38-14.95L165.38-14.95 162.08-14.95 162.03-0.25Q162.03 0 161.83 0L161.83 0ZM162.08-28.8L162.08-20.95 166.38-20.95Q167.93-20.95 169.13-22.1 170.33-23.25 170.33-24.9L170.33-24.9Q170.33-26.5 169.16-27.65 167.98-28.8 166.38-28.8L166.38-28.8 162.08-28.8ZM178.38-0.25L178.38-0.25 184.58-34.6Q184.63-34.8 184.83-34.8L184.83-34.8 192.08-34.8Q192.28-34.8 192.33-34.6L192.33-34.6 198.28-0.25Q198.33 0 198.08 0L198.08 0 192.53 0Q192.33 0 192.28-0.25L192.28-0.25 191.73-3.9 184.93-3.9 184.38-0.25Q184.33 0 184.13 0L184.13 0 178.58 0Q178.38 0 178.38-0.25ZM188.18-23.3L185.93-9.25 190.73-9.25 188.68-23.3 188.38-25.15 188.18-23.3ZM210.63-0.05L201.68 0Q201.43 0 201.43-0.25L201.43-0.25 201.53-34.6Q201.53-34.8 201.73-34.8L201.73-34.8 211.08-34.85Q213.83-34.9 216.1-33.55 218.38-32.2 219.73-29.93 221.08-27.65 221.08-24.9L221.08-24.9 221.08-10.55Q221.08-7.65 219.68-5.28 218.28-2.9 215.93-1.5 213.58-0.1 210.63-0.05L210.63-0.05ZM207.58-28.8L207.53-6.15 210.63-6.15Q212.48-6.15 213.75-7.45 215.03-8.75 215.03-10.55L215.03-10.55 215.03-24.95Q215.03-26.55 213.85-27.73 212.68-28.9 211.08-28.85L211.08-28.85 207.58-28.8ZM230.93 0L225.28 0Q225.03 0 225.03-0.25L225.03-0.25 225.08-34.6Q225.08-34.8 225.28-34.8L225.28-34.8 230.88-34.8Q231.08-34.8 231.08-34.6L231.08-34.6 231.13-0.25Q231.13 0 230.93 0L230.93 0ZM244.72 0.5L244.72 0.5Q242.07 0.5 239.82-0.88 237.57-2.25 236.25-4.55 234.92-6.85 234.92-9.6L234.92-9.6 235.02-34.6Q235.02-34.8 235.22-34.8L235.22-34.8 240.82-34.8Q241.02-34.8 241.02-34.6L241.02-34.6 241.02-9.6Q241.02-7.9 242.1-6.73 243.17-5.55 244.72-5.55L244.72-5.55Q246.32-5.55 247.4-6.73 248.47-7.9 248.47-9.6L248.47-9.6 248.47-34.6Q248.47-34.8 248.67-34.8L248.67-34.8 254.27-34.8Q254.47-34.8 254.47-34.6L254.47-34.6 254.57-9.6Q254.57-6.8 253.25-4.5 251.92-2.2 249.7-0.85 247.47 0.5 244.72 0.5ZM267.02 0.5L267.02 0.5Q264.32 0.5 262.1-0.88 259.87-2.25 258.55-4.53 257.22-6.8 257.22-9.55L257.22-9.55 257.22-11.85Q257.22-12.1 257.47-12.1L257.47-12.1 263.07-12.1Q263.27-12.1 263.27-11.85L263.27-11.85 263.27-9.55Q263.27-7.9 264.37-6.73 265.47-5.55 267.02-5.55L267.02-5.55Q268.57-5.55 269.67-6.75 270.77-7.95 270.77-9.55L270.77-9.55Q270.77-11.4 268.37-12.75L268.37-12.75Q267.57-13.2 265.87-14.15 264.17-15.1 262.67-15.95L262.67-15.95Q259.92-17.55 258.6-19.98 257.27-22.4 257.27-25.45L257.27-25.45Q257.27-28.25 258.62-30.48 259.97-32.7 262.2-34 264.42-35.3 267.02-35.3L267.02-35.3Q269.67-35.3 271.9-33.98 274.12-32.65 275.45-30.43 276.77-28.2 276.77-25.45L276.77-25.45 276.77-21.35Q276.77-21.15 276.57-21.15L276.57-21.15 270.97-21.15Q270.77-21.15 270.77-21.35L270.77-21.35 270.72-25.45Q270.72-27.2 269.62-28.3 268.52-29.4 267.02-29.4L267.02-29.4Q265.47-29.4 264.37-28.23 263.27-27.05 263.27-25.45L263.27-25.45Q263.27-23.8 263.97-22.7 264.67-21.6 266.52-20.6L266.52-20.6Q266.77-20.45 267.5-20.08 268.22-19.7 269.07-19.23 269.92-18.75 270.6-18.4 271.27-18.05 271.42-17.95L271.42-17.95Q273.92-16.55 275.37-14.53 276.82-12.5 276.82-9.55L276.82-9.55Q276.82-6.7 275.5-4.42 274.17-2.15 271.95-0.83 269.72 0.5 267.02 0.5Z" opacity="1" transform="matrix(1,0,0,1,0,0)" fill="#152232" class="wordmark-text-0" data-fill-palette-color="primary" id="text-0"></path></svg></g></svg></g></svg></g></svg></g><g transform="matrix(1,0,0,1,0,0.12897391304347394)"><svg viewBox="0 0 115.39771262356021 51.589565217391296" height="51.589565217391296" width="115.39771262356021"><g><svg xmlns="http://www.w3.org/2000/svg" xmlns:xlink="http://www.w3.org/1999/xlink" version="1.0" x="0" y="0" viewBox="5 32.65300000000001 90.02058228862379 40.24449527900199" enable-background="new 0 0 100 100" xml:space="preserve" height="51.589565217391296" width="115.39771262356021" class="icon-icon-0" data-fill-palette-color="accent" id="icon-0"><g fill="#5ebc67" data-fill-palette-color="accent"><path fill="#5ebc67" d="M79.831 68.229c-1.856-2.528-4.197-4.547-6.745-6.347-1.355-0.954-2.818-1.743-4.122-2.777-1.387-1.101-2.801-2.17-4.228-3.216-3.878-2.849-7.881-5.52-11.81-8.298-1.639-1.16-2.377-2.861-2.487-4.833-0.047-0.854 0.358-1.18 1.245-1.098 0.8 0.075 1.592 0.199 2.359 0.443 1.374 0.439 2.775 0.727 4.225 0.736 0.71 0.004 1.387-0.165 1.971-0.547 1.36-0.883 2.504-2.001 3.421-3.343 0.021-0.028-0.018-0.097-0.042-0.201-0.955 0-1.923 0.015-2.89-0.008-0.341-0.008-0.562 0.118-0.789 0.354-0.628 0.655-1.415 1.052-2.281 1.284-1.757 0.468-3.396-0.014-5.188-0.659 1.573-0.155 3.113 0.316 4.447-1.005-1.141 0-2.099-0.036-3.055 0.009-0.949 0.046-1.727 0.779-2.732 0.698 1.096 0.722 2.148 1.433 3.104 2.31-0.525-0.064-1.012-0.284-1.512-0.312-0.753-0.044-1.198-0.495-1.646-0.99-0.11-0.125-0.206-0.26-0.315-0.385-0.95-1.081-1.79-2.261-2.91-3.186-0.203-0.167-0.373-0.441-0.757-0.253 1.011 1.257 1.712 2.691 2.523 4.06-0.036 0.048-0.072 0.096-0.107 0.142-0.983-0.067-1.759-0.45-2.381-1.14-0.142-0.158-0.278-0.333-0.405-0.525-0.428-0.644-0.781-1.35-1.252-1.938-0.657-0.823-1.261-1.68-1.884-2.524-0.212-0.287-0.483-0.44-0.8-0.555-0.984-0.359-1.974-0.706-2.949-1.087-1.347-0.528-2.72-0.375-4.094-0.192-0.948 0.126-1.432 0.768-1.328 1.838 0.08 0.827 0.145 1.668 0.015 2.488-0.135 0.854 0.009 1.665 0.254 2.453 0.449 1.447 0.96 2.875 1.461 4.307 0.567 1.62 1.179 3.238 2.154 4.649 2.021 2.925 4.33 5.624 7.04 7.932 3.181 2.712 6.453 5.316 9.66 7.999 1.868 1.564 3.724 3.151 5.282 5.041 0.695 0.841 1.312 1.719 1.176 2.914 0.264 0.02 0.482 0.049 0.701 0.051 1.773 0.026 3.547 0.05 5.32 0.069 0.797 0.009 0.841-0.057 0.737-0.854-0.044-0.335-0.169-0.638-0.313-0.938-0.276-0.578-0.651-1.089-1.051-1.588-1.42-1.766-3.211-3.131-4.963-4.527-3.829-3.054-7.713-6.038-11.554-9.077-1.454-1.148-2.969-2.231-4.256-3.577-1.34-1.402-2.589-2.883-3.822-4.382-0.966-1.173-1.628-2.455-2.069-3.916-0.446-1.478-0.25-2.844 0.287-4.205 0.361-0.912 1.044-1.201 1.994-0.916 0.792 0.24 1.582 0.491 2.363 0.762 0.798 0.277 1.584 0.589 2.376 0.885-0.238 0.11-0.452 0.109-0.667 0.11-1.404 0.009-1.683 0.248-2.115 1.583-0.216 0.667-0.066 1.253 0.205 1.836 0.222 0.478 0.473 0.94 0.736 1.393 1.135 1.954 2.487 3.759 4.263 5.153 5.768 4.527 11.819 8.676 17.646 13.125 1.673 1.278 3.352 2.546 4.804 4.082 1.371 1.45 2.688 2.941 2.78 5.204 2.048 0 4.042 0 6.034 0.001 0.771 0 0.81-0.046 0.684-0.8C81.346 70.542 80.65 69.349 79.831 68.229z" data-fill-palette-color="accent"></path><path fill="#5ebc67" d="M27.882 67.337c-0.868-1.695-1.802-3.356-2.637-5.066-1.553-3.185-2.857-6.423-3.188-10.032-0.317-3.458 0.062-6.784 1.013-10.085 0.265-0.919 0.608-1.811 0.965-2.693-0.429-0.228-0.681 0.027-0.957 0.199-1.291 0.807-2.471 1.781-3.762 2.578-1.325 0.819-2.383 1.859-3.213 3.156-0.5 0.779-1.196 1.421-1.587 2.276 0.328 0.019 0.531-0.187 0.731-0.382 0.026-0.025 0.052-0.049 0.079-0.075 0.002-0.002 0.005-0.003 0.007-0.006 0.032-0.029 0.065-0.056 0.097-0.084 1.523-1.199 2.894-2.573 4.359-3.837 0.212-0.183 0.391-0.445 0.702-0.469 0.167 0.312-0.071 0.403-0.195 0.516-1.853 1.672-3.472 3.564-5.132 5.42-1.143 1.279-2.292 2.567-3.66 3.609-1.002 0.764-1.843 1.638-2.572 2.66-1.256 1.759-2.572 3.477-3.879 5.234 0.116 0.021 0.185 0.057 0.217 0.035 0.186-0.119 0.364-0.25 0.541-0.382 2.885-2.15 5.309-4.757 7.506-7.586 1.034-1.33 2.057-2.668 3.085-4.002 0.05 0.08 0.1 0.16 0.15 0.24-0.786 1.263-1.571 2.529-2.358 3.791-2.244 3.599-4.719 7.019-7.659 10.093C6.036 62.964 5.52 63.464 5 63.96v4.642c0.294-0.461 0.581-0.926 0.939-1.339 1.563-1.798 3.013-3.681 4.261-5.712 2.3-3.738 4.321-7.63 6.284-11.551 0.727-1.454 1.519-2.869 2.468-4.192 0.056 0.04 0.112 0.079 0.168 0.119-0.278 0.572-0.585 1.132-0.827 1.717-1.367 3.314-2.791 6.604-3.949 10.002-0.633 1.855-1.348 3.68-2.182 5.453-0.227 0.485-0.367 0.979-0.442 1.5-0.064 0.438-0.121 0.876-0.191 1.313-0.36 2.238-1.165 4.258-2.872 5.833-0.028 0.025-0.009 0.103-0.016 0.232 2.052 0 4.098-0.01 6.145 0.01 0.356 0.002 0.558-0.168 0.76-0.409 0.832-0.998 1.198-2.165 1.267-3.441 0.078-1.416-0.065-2.823-0.238-4.225-0.223-1.812-0.434-3.588 0.042-5.423 0.566-2.189 0.693-4.478 1.371-6.65 0.729-2.342 1.339-4.728 2.342-6.978 0.444-0.995 0.936-1.968 1.597-2.872 0.226 0.371-0.021 0.637-0.126 0.898-0.944 2.313-1.51 4.731-1.947 7.179-0.44 2.467-0.319 4.971-0.379 7.461-0.005 0.164 0.025 0.333 0.065 0.492 0.294 1.18 0.582 2.36 0.897 3.534 0.538 1.998 1.313 3.925 1.798 5.938 0.369 1.529 0.609 3.061-0.488 4.437-0.016 0.021 0.029 0.089 0.064 0.188 1.921 0 3.86-0.002 5.798 0 0.842 0 0.985-0.112 1.191-0.912 0.091-0.354 0.11-0.703 0.061-1.068C28.726 69.135 28.336 68.221 27.882 67.337z" data-fill-palette-color="accent"></path><path fill="#5ebc67" d="M14.505 47.684c0.001 0 0.002 0 0.004-0.002 0.002-0.004 0.005-0.008 0.006-0.013-0.008-0.001-0.016-0.001-0.024-0.001C14.497 47.674 14.5 47.68 14.505 47.684z" data-fill-palette-color="accent"></path><path fill="#5ebc67" d="M14.489 47.78c0.012-0.003 0.021-0.008 0.027-0.015 0.004-0.005 0.005-0.011 0.006-0.016 0.001-0.002 0.003-0.004 0.004-0.008 0-0.008 0-0.015-0.004-0.024 0-0.001 0-0.001 0-0.002-0.003-0.01-0.009-0.02-0.017-0.031-0.037 0.019-0.074 0.039-0.111 0.059C14.426 47.757 14.463 47.789 14.489 47.78z" data-fill-palette-color="accent"></path><path fill="#5ebc67" d="M94.996 72.358c-0.134-0.822-0.309-1.646-0.669-2.385-0.715-1.457-0.714-2.984-0.605-4.536 0.098-1.437 0.137-2.876 0.106-4.316-0.011-0.475-0.161-0.83-0.455-1.193-1.201-1.482-2.36-2.999-3.562-4.482-0.549-0.676-1.029-1.415-1.674-2.03-0.17 0.218-0.098 0.416-0.115 0.597-0.113 1.188-0.621 1.615-1.799 1.517-0.701-0.059-1.341-0.321-1.963-0.614-1.42-0.674-2.814-1.403-4.243-2.053-2.938-1.337-5.987-2.395-9.04-3.432-1.293-0.439-2.254-1.133-2.639-2.489-0.081-0.28-0.242-0.483-0.496-0.633-0.201-0.118-0.448-0.202-0.509-0.342 1.134-2.403 2.229-4.722 3.376-7.15-1.094 0-2.034 0.027-2.971-0.011-0.449-0.02-0.688 0.126-0.904 0.52-0.892 1.617-1.821 3.212-2.735 4.815-0.429 0.754-0.427 0.756-1.248 0.6-0.733-0.14-1.468-0.263-2.195-0.432-0.467-0.11-0.931-0.108-1.401-0.118-0.447-0.011-0.789 0.171-1.095 0.546 0.602 0.529 1.265 0.921 1.912 1.32 1.688 1.037 3.335 2.132 5.195 2.886 1.421 0.575 2.883 1.149 3.908 2.407 1.493 1.832 3.358 3.294 4.998 4.98 0.623 0.639 1.344 1.131 2.112 1.586 3.688 2.178 6.92 4.863 9.288 8.484 1.23 1.878 2.371 3.801 2.609 6.104 0.037 0.342 0.277 0.286 0.488 0.289 1.965 0.034 3.931 0.049 5.897 0.104C95.032 72.908 95.058 72.736 94.996 72.358z" data-fill-palette-color="accent"></path><path fill="#5ebc67" d="M54.489 70.436c-0.393-0.672-0.874-1.279-1.397-1.853-1.945-2.135-4.142-4.001-6.318-5.89-2.931-2.541-5.87-5.068-8.34-8.087-1.545-1.89-3-3.821-3.961-6.093-1.001-2.362-1.873-4.776-2.836-7.153-0.156-0.385-0.215-0.795-0.241-1.214-0.062-0.994-0.153-1.985-0.246-2.977-0.134-1.453 0.144-2.857 0.993-4.1 0.071-0.104 0.208-0.199 0.026-0.416-0.574 0.348-1.144 0.726-1.743 1.05-1.08 0.583-1.652 1.503-1.872 2.677-0.03 0.165-0.051 0.329-0.066 0.493-0.128 1.469 0.049 2.929 0.097 4.393 0.043 1.358 0.395 2.611 0.89 3.852 0.685 1.716 1.314 3.455 2.026 5.161 0.66 1.579 1.407 3.119 2.393 4.533 1.893 2.716 4.119 5.139 6.471 7.454 1.936 1.902 3.942 3.736 5.754 5.764 0.666 0.743 1.309 1.509 1.763 2.401 0.289 0.562 0.55 1.152 0.174 2.003 2.081 0 4.018 0 5.953 0.001 0.95 0 1.15-0.259 0.866-1.177C54.785 70.973 54.643 70.695 54.489 70.436z" data-fill-palette-color="accent"></path><path fill="#5ebc67" d="M40.693 68.826c-1.387-1.98-3.098-3.687-4.675-5.506-1.994-2.303-3.959-4.629-5.462-7.297-1.274-2.268-2.245-4.674-3.066-7.134-0.411-1.227-0.876-2.445-1.053-3.739-0.343-2.495-0.056-4.972 0.176-7.454 0.037-0.406 0.385-0.716 0.32-1.14-0.166-0.012-0.247 0.06-0.334 0.128-1.083 0.876-1.681 2.035-1.933 3.377-0.179 0.951-0.301 1.913-0.464 2.867-0.289 1.676-0.39 3.368-0.132 5.045 0.503 3.297 1.506 6.44 2.979 9.44 1.459 2.971 3.378 5.637 5.292 8.312 0.851 1.191 1.749 2.353 2.385 3.682 0.416 0.866 0.657 1.756 0.115 2.868 2.151 0 4.144 0.002 6.136-0.001 0.671-0.001 0.8-0.138 0.822-0.815 0.013-0.397-0.084-0.771-0.237-1.13C41.331 69.796 41.027 69.302 40.693 68.826z" data-fill-palette-color="accent"></path><path fill="#5ebc67" d="M71.833 47.306c0.773 0.395 1.508 0.218 2.203-0.185 0.762-0.442 1.548-0.875 1.81-1.83 0.466-1.7 0.935-3.4 1.426-5.094 0.089-0.305 0.037-0.512-0.14-0.758-0.295-0.412-0.622-0.656-1.172-0.582-0.407 0.056-0.831 0.044-1.242-0.001-0.492-0.055-0.721 0.117-0.894 0.597-0.66 1.84-1.381 3.659-2.062 5.49-0.255 0.684-0.573 1.315-1.215 1.831C70.98 47.077 71.441 47.107 71.833 47.306z" data-fill-palette-color="accent"></path><path fill="#5ebc67" d="M75.627 48.175c-0.339-0.013-0.673-0.048-1.143 0.084 1.777 0.556 3.368 1.229 4.993 1.81 0.727 0.26 1.475 0.461 2.268 0.428 1.087-0.045 1.682-0.532 1.908-1.598 0.04-0.19 0.04-0.388 0.092-0.574 0.079-0.294 0.012-0.53-0.178-0.767-1.093-1.355-2.172-2.72-3.32-4.162-0.167 0.28-0.178 0.5-0.217 0.715-0.146 0.816-0.274 1.636-0.566 2.416-0.392 1.042-1.163 1.586-2.26 1.651C76.681 48.211 76.152 48.198 75.627 48.175z" data-fill-palette-color="accent"></path><path fill="#5ebc67" d="M20.285 39.799c0.846-0.351 1.47-0.783 2.139-1.166C21.312 38.195 20.846 38.919 20.285 39.799z" data-fill-palette-color="accent"></path></g></svg></g></svg></g></svg></g><defs></defs></svg><rect width="395.5199999999999" height="37.98047082548885" fill="none" stroke="none" visibility="hidden"></rect></g></svg></g></svg>